<svg viewBox="0 0 190 42" fill="none" xmlns="http://www.w3.org/2000/svg" x="0" y="0"><g id="Logo">
<g id="LogoIcon">
<path id="Rectangle 6" d="M29.585,20.8725c0.652,-0.2864 0.711,-1.179 0.102,-1.5481l-15.569,-9.4346c-0.139,-0.0845 -0.3,-0.1292 -0.463,-0.1293l-1.87,0.0003c-0.828,0.0002 -1.203,1.0219 -0.568,1.5478l13.476,11.1728c0.26,0.215 0.621,0.2645 0.93,0.1288z" fill="#2F93F7" stroke="#2F93F7" stroke-width="0.97949"/>
<path id="Rectangle 7" d="M15.555,31.1493c0.589,-0.3533 0.562,-1.2057 -0.047,-1.5237l-7.248,-3.7817c-0.203,-0.1061 -0.441,-0.1302 -0.662,-0.0669l-5.202,1.4932c-0.716,0.2057 -0.87,1.1416 -0.256,1.562l7.599,5.2003c0.288,0.1969 0.665,0.2078 0.964,0.0285z" fill="#2F93F7" stroke="#2F93F7" stroke-width="0.97949"/>
<path id="Rectangle 5" d="M57.195,4.4189c1.244,1.612 0.907,3.9169 -0.745,5.1072l-34.743,25.0284l-8.653,1.7907l-3.116,-2.1999l42.201,-30.4603c1.602,-1.1564 3.849,-0.8302 5.056,0.7339z" fill="#2F93F7" stroke="#2F93F7" stroke-width="0.97949"/>
<path id="Line 1" d="M1.126,42h32.981" stroke="#2F93F7" stroke-width="2" stroke-linecap="round"/>
</g>
<path id="flyway" d="M79.457,11.8837c-1.6,0 -2.4,0.9222 -2.4,2.7667v1.1333h4.534v3.5h-4.434v14h-4.3v-14h-2.7v-3.5h2.7v-1.1667c0,-1.9333 0.545,-3.4666 1.634,-4.6c1.088,-1.1333 2.611,-1.7 4.566,-1.7c0.734,0 1.422,0.0889 2.067,0.2667c0.644,0.1555 1.178,0.4 1.6,0.7333l-1.167,3.2667c-0.6,-0.4667 -1.3,-0.7 -2.1,-0.7zM89.075,8.5504v24.7333h-4.333v-24.7333zM102.458,34.617c-0.755,1.9778 -1.678,3.3667 -2.767,4.1667c-1.088,0.8 -2.4,1.2 -3.933,1.2c-0.867,0 -1.722,-0.1445 -2.567,-0.4333c-0.822,-0.2667 -1.488,-0.6556 -2,-1.1667l1.6,-3.2333c0.378,0.3777 0.812,0.6666 1.3,0.8666c0.512,0.2 1.023,0.3 1.534,0.3c0.733,0 1.322,-0.2111 1.766,-0.6333c0.467,-0.4 0.945,-1.1667 1.434,-2.3l-7.434,-17.9333h4.434l5.166,12.8l5.134,-12.8h4.166zM132.367,33.2837h-4.134l-4.133,-11.9333l-4.3,11.9333h-4.1l-6.167,-17.8333h4.034l4.3,12.8l4.466,-12.8h3.634l4.366,12.8l4.4,-12.8h3.8zM147.102,15.217c2.533,0 4.466,0.6445 5.8,1.9334c1.355,1.2666 2.033,3.1777 2.033,5.7333v10.4h-4.033v-2.4333c-0.467,0.8666 -1.156,1.5333 -2.067,2c-0.911,0.4444 -2,0.6666 -3.267,0.6666c-1.933,0 -3.466,-0.4889 -4.6,-1.4666c-1.133,-1 -1.7,-2.2889 -1.7,-3.8667c0,-1.6222 0.578,-2.9 1.734,-3.8333c1.155,-0.9556 2.944,-1.4334 5.366,-1.4334h4.267c0,-0.7555 -0.111,-1.3666 -0.333,-1.8333c-0.489,-1.5111 -1.745,-2.2667 -3.767,-2.2667c-0.955,0 -1.889,0.1667 -2.8,0.5c-0.889,0.3111 -1.655,0.7334 -2.3,1.2667l-1.567,-3.1333c0.912,-0.7112 2,-1.2556 3.267,-1.6334c1.289,-0.4 2.611,-0.6 3.967,-0.6zM146.602,30.4504c0.955,0 1.789,-0.2334 2.5,-0.7c0.711,-0.4667 1.222,-1.1445 1.533,-2.0334v-2.1333h-3.8c-2.244,0 -3.367,0.8 -3.367,2.4c0,0.7555 0.278,1.3555 0.834,1.8c0.555,0.4444 1.322,0.6667 2.3,0.6667zM166.823,34.617c-0.755,1.9778 -1.677,3.3667 -2.766,4.1667c-1.089,0.8 -2.4,1.2 -3.934,1.2c-0.866,0 -1.722,-0.1445 -2.566,-0.4333c-0.823,-0.2667 -1.489,-0.6556 -2,-1.1667l1.6,-3.2333c0.377,0.3777 0.811,0.6666 1.3,0.8666c0.511,0.2 1.022,0.3 1.533,0.3c0.733,0 1.322,-0.2111 1.767,-0.6333c0.466,-0.4 0.944,-1.1667 1.433,-2.3l-7.433,-17.9333h4.433l5.167,12.8l5.133,-12.8h4.167z" fill="#404040"/>
</g></svg>