<svg viewBox="0 0 60.7048 51" fill="none" xmlns="http://www.w3.org/2000/svg" x="0" y="0"><g id="Group 66">
<path id="Rectangle 11" d="M30.4939,25.884c0.798,-0.034 1.231,-0.95 0.75,-1.588l-9.51,-12.618c-0.111,-0.147 -0.259,-0.259 -0.429,-0.326l-1.954,-0.769c-0.862,-0.34 -1.678,0.583 -1.235,1.397l7.372,13.562c0.181,0.333 0.536,0.534 0.914,0.517z" fill="currentColor"/>
<path id="Rectangle 12" d="M16.2789,29.672c0.76,-0.131 1.086,-1.04 0.584,-1.625l-4.757,-5.532c-0.168,-0.195 -0.405,-0.317 -0.661,-0.341l-4.984,-0.462c-0.833,-0.077 -1.382,0.846 -0.916,1.54l4.608,6.879c0.218,0.326 0.607,0.493 0.993,0.426z" fill="currentColor"/>
<path id="Rectangle 13" d="M53.1349,18.395c1.845,-0.483 3.738,0.599 4.259,2.434c0.536,1.891 -0.587,3.853 -2.489,4.349l-35.209,9.171l-7.629,-1.298l-2.173,-3.35z" fill="currentColor"/>
</g></svg>