<svg xmlns="http://www.w3.org/2000/svg" width="1875" height="1589" viewBox="0 0 1875 1589">
    <path d="M 1610.42 414.58 L 1504.17 460.42 L 1360.42 537.50 L 1214.58 629.17 L 1060.42 743.75 L 1014.58 920.83 L 947.92 1108.33 L 1204.17 970.83 L 1456.25 868.75 Z" fill="#fec525" fill-rule="evenodd" />
    <path d="M 1695.83 160.42 L 1416.67 160.42 L 1358.33 172.92 L 1325.00 191.67 L 1112.50 427.08 L 1093.75 579.17 L 1064.58 733.33 L 1214.58 627.08 L 1360.42 535.42 L 1504.17 458.33 L 1608.33 412.50 L 1629.17 366.67 Z" fill="#ada396" fill-rule="evenodd" />
    <path d="M 1108.33 433.33 L 1052.08 485.42 L 372.92 1193.75 L 195.83 1333.33 L 464.58 1335.42 L 589.58 1187.50 L 720.83 1045.83 L 889.58 883.33 L 1058.33 741.67 L 1091.67 575.00 Z" fill="#af0041" fill-rule="evenodd" />
    <path d="M 1454.17 877.08 L 1379.17 900.00 L 1216.67 968.75 L 1097.92 1027.08 L 947.92 1112.50 L 835.42 1335.42 L 1287.50 1335.42 Z" fill="#270092" fill-rule="evenodd" />
    <path d="M 1056.25 747.92 L 889.58 885.42 L 722.92 1045.83 L 562.50 1220.83 L 477.08 1322.92 L 472.92 1335.42 L 625.00 1335.42 L 770.83 1225.00 L 943.75 1108.33 L 1012.50 920.83 Z" fill="#ed0010" fill-rule="evenodd" />
    <path d="M 935.42 1120.83 L 781.25 1220.83 L 635.42 1333.33 L 827.08 1335.42 L 889.58 1227.08 Z" fill="#4f1f90" fill-rule="evenodd" />
</svg>
