<svg viewBox="0 0 6.2929 3.3962" fill="none" xmlns="http://www.w3.org/2000/svg" x="0" y="0"><path id="Vector" d="M2.9695,3.323l-2.896,-2.896c-0.035,-0.035 -0.059,-0.079 -0.069,-0.128c-0.009,-0.048 -0.004,-0.099 0.014,-0.145c0.019,-0.045 0.051,-0.084 0.093,-0.112c0.041,-0.027 0.089,-0.042 0.138,-0.042h5.793c0.05,0 0.098,0.015 0.139,0.042c0.042,0.028 0.074,0.067 0.092,0.112c0.019,0.046 0.024,0.097 0.015,0.145c-0.01,0.049 -0.034,0.093 -0.069,0.128l-2.897,2.896c-0.046,0.047 -0.11,0.073 -0.176,0.073c-0.067,0 -0.13,-0.026 -0.177,-0.073z" fill="currentColor"/></svg>